<svg width="302" height="66" viewBox="0 0 302 66" fill="none" xmlns="http://www.w3.org/2000/svg">
<path d="M58.57 33.34C58.4767 34.88 58.3833 36.4433 58.29 38.03C58.1967 39.57 57.94 41.0633 57.52 42.51C57.1467 43.9567 56.54 45.2633 55.7 46.43C54.9067 47.5967 53.7633 48.53 52.27 49.23C50.9633 49.8833 49.5633 50.3267 48.07 50.56C46.5767 50.84 45.0833 50.9567 43.59 50.91C42.0967 50.8633 40.65 50.63 39.25 50.21C37.85 49.8367 36.59 49.3 35.47 48.6C34.35 47.9 33.44 46.99 32.74 45.87C32.04 44.75 31.48 43.5367 31.06 42.23C30.6867 40.9233 30.43 39.57 30.29 38.17C30.15 36.77 30.0567 35.4633 30.01 34.25C29.8233 31.03 29.8233 27.8567 30.01 24.73C30.01 24.1233 30.01 23.4467 30.01 22.7C30.01 21.9067 30.0567 21.1367 30.15 20.39C30.29 19.6433 30.5 18.9667 30.78 18.36C31.06 17.7067 31.5267 17.2167 32.18 16.89C33.58 16.1433 34.8633 16.0967 36.03 16.75C37.2433 17.4033 37.9667 18.7567 38.2 20.81C38.34 21.8833 38.3867 23.0733 38.34 24.38C38.34 25.6867 38.3867 26.8767 38.48 27.95C38.5267 29.5367 38.5733 31.2633 38.62 33.13C38.6667 34.95 38.9233 36.5833 39.39 38.03C39.9033 39.4767 40.72 40.5733 41.84 41.32C43.0067 42.02 44.7333 42.0433 47.02 41.39C48.0933 41.0633 48.7933 40.2467 49.12 38.94C49.4933 37.6333 49.68 35.6967 49.68 33.13C49.68 32.01 49.6567 30.7733 49.61 29.42C49.5633 28.0667 49.54 26.7367 49.54 25.43C49.54 24.0767 49.5633 22.84 49.61 21.72C49.7033 20.5533 49.8433 19.6667 50.03 19.06C50.2633 18.22 50.7533 17.59 51.5 17.17C52.2467 16.75 53.04 16.54 53.88 16.54C54.72 16.4933 55.5133 16.6567 56.26 17.03C57.0067 17.4033 57.52 18.01 57.8 18.85C58.08 19.5967 58.2667 20.5533 58.36 21.72C58.5 22.84 58.5933 24.0767 58.64 25.43C58.6867 26.7367 58.6867 28.09 58.64 29.49C58.64 30.8433 58.6167 32.1267 58.57 33.34ZM61.6954 25.01C61.6954 23.9367 61.6721 22.7933 61.6254 21.58C61.6254 20.3667 61.8354 19.27 62.2554 18.29C62.6287 17.4033 63.2354 16.7733 64.0754 16.4C64.9621 15.98 65.8254 15.8867 66.6654 16.12C67.5054 16.26 68.1587 16.5167 68.6254 16.89C69.0921 17.2633 69.4187 17.7067 69.6054 18.22C69.8387 18.6867 69.9787 19.2467 70.0254 19.9C70.0721 20.5067 70.1187 21.1133 70.1654 21.72C70.6321 20.88 71.2154 20.2033 71.9154 19.69C72.6154 19.1767 73.3387 18.7567 74.0854 18.43C74.8321 18.1033 75.5321 17.87 76.1854 17.73C76.8854 17.59 77.4221 17.52 77.7954 17.52C79.5687 17.52 81.3187 17.9167 83.0454 18.71C84.8187 19.4567 86.2887 20.53 87.4554 21.93C88.1087 22.77 88.5987 23.6567 88.9254 24.59C89.2987 25.4767 89.5554 26.41 89.6954 27.39C89.8821 28.37 89.9987 29.3733 90.0454 30.4C90.0921 31.38 90.1387 32.3833 90.1854 33.41C90.4187 36.3967 90.4187 39.36 90.1854 42.3C90.1387 42.9067 90.1154 43.6067 90.1154 44.4C90.1154 45.1933 90.0454 45.9867 89.9054 46.78C89.8121 47.5267 89.6021 48.2033 89.2754 48.81C88.9954 49.37 88.5054 49.72 87.8054 49.86C86.8254 50.0933 86.0087 50.14 85.3554 50C84.7487 49.9067 84.2587 49.6967 83.8854 49.37C83.5121 49.0433 83.2321 48.6233 83.0454 48.11C82.8587 47.5967 82.6954 47.0133 82.5554 46.36C82.4621 45.8467 82.3687 45.2633 82.2754 44.61C82.2287 43.91 82.1821 43.21 82.1354 42.51C82.1354 41.81 82.1121 41.1333 82.0654 40.48C82.0654 39.78 82.0654 39.15 82.0654 38.59C82.0654 37.7033 82.0421 36.7233 81.9954 35.65C81.9487 34.5767 81.9487 33.5733 81.9954 32.64C81.9954 30.4467 81.4121 28.79 80.2454 27.67C79.1254 26.5033 77.5854 26.0133 75.6254 26.2C74.1321 26.3867 72.8254 26.9933 71.7054 28.02C70.5854 29 70.0487 30.2833 70.0954 31.87C70.0954 32.4767 70.0954 33.0367 70.0954 33.55C70.0954 34.0633 70.0721 34.5767 70.0254 35.09C70.0254 35.6033 70.0254 36.1633 70.0254 36.77C70.0254 37.3767 70.0254 38.0533 70.0254 38.8C70.0254 40.34 70.0254 41.9733 70.0254 43.7C70.0254 45.38 69.8154 46.7567 69.3954 47.83C69.0221 48.95 68.3921 49.72 67.5054 50.14C66.6187 50.56 65.5687 50.4433 64.3554 49.79C63.8421 49.51 63.4221 49.1367 63.0954 48.67C62.8154 48.1567 62.5821 47.62 62.3954 47.06C62.2554 46.5 62.1621 45.94 62.1154 45.38C62.0687 44.7733 62.0221 44.2133 61.9754 43.7C61.8354 42.16 61.7421 40.7367 61.6954 39.43C61.6954 38.0767 61.6954 36.63 61.6954 35.09V25.01ZM91.8802 25.01C91.8802 23.9367 91.8568 22.7933 91.8102 21.58C91.8102 20.3667 92.0202 19.27 92.4402 18.29C92.8135 17.4033 93.4202 16.7733 94.2602 16.4C95.1468 15.98 96.0102 15.8867 96.8502 16.12C97.6902 16.26 98.3435 16.5167 98.8102 16.89C99.2768 17.2633 99.6035 17.7067 99.7902 18.22C100.023 18.6867 100.163 19.2467 100.21 19.9C100.257 20.5067 100.303 21.1133 100.35 21.72C100.817 20.88 101.4 20.2033 102.1 19.69C102.8 19.1767 103.523 18.7567 104.27 18.43C105.017 18.1033 105.717 17.87 106.37 17.73C107.07 17.59 107.607 17.52 107.98 17.52C109.753 17.52 111.503 17.9167 113.23 18.71C115.003 19.4567 116.473 20.53 117.64 21.93C118.293 22.77 118.783 23.6567 119.11 24.59C119.483 25.4767 119.74 26.41 119.88 27.39C120.067 28.37 120.183 29.3733 120.23 30.4C120.277 31.38 120.323 32.3833 120.37 33.41C120.603 36.3967 120.603 39.36 120.37 42.3C120.323 42.9067 120.3 43.6067 120.3 44.4C120.3 45.1933 120.23 45.9867 120.09 46.78C119.997 47.5267 119.787 48.2033 119.46 48.81C119.18 49.37 118.69 49.72 117.99 49.86C117.01 50.0933 116.193 50.14 115.54 50C114.933 49.9067 114.443 49.6967 114.07 49.37C113.697 49.0433 113.417 48.6233 113.23 48.11C113.043 47.5967 112.88 47.0133 112.74 46.36C112.647 45.8467 112.553 45.2633 112.46 44.61C112.413 43.91 112.367 43.21 112.32 42.51C112.32 41.81 112.297 41.1333 112.25 40.48C112.25 39.78 112.25 39.15 112.25 38.59C112.25 37.7033 112.227 36.7233 112.18 35.65C112.133 34.5767 112.133 33.5733 112.18 32.64C112.18 30.4467 111.597 28.79 110.43 27.67C109.31 26.5033 107.77 26.0133 105.81 26.2C104.317 26.3867 103.01 26.9933 101.89 28.02C100.77 29 100.233 30.2833 100.28 31.87C100.28 32.4767 100.28 33.0367 100.28 33.55C100.28 34.0633 100.257 34.5767 100.21 35.09C100.21 35.6033 100.21 36.1633 100.21 36.77C100.21 37.3767 100.21 38.0533 100.21 38.8C100.21 40.34 100.21 41.9733 100.21 43.7C100.21 45.38 100 46.7567 99.5802 47.83C99.2068 48.95 98.5768 49.72 97.6902 50.14C96.8035 50.56 95.7535 50.4433 94.5402 49.79C94.0268 49.51 93.6068 49.1367 93.2802 48.67C93.0002 48.1567 92.7668 47.62 92.5802 47.06C92.4402 46.5 92.3468 45.94 92.3002 45.38C92.2535 44.7733 92.2068 44.2133 92.1602 43.7C92.0202 42.16 91.9268 40.7367 91.8802 39.43C91.8802 38.0767 91.8802 36.63 91.8802 35.09V25.01ZM152.758 18.78C153.178 19.4333 153.364 20.1333 153.318 20.88C153.318 21.9533 153.131 22.8867 152.758 23.68C152.664 23.9133 152.524 24.2167 152.338 24.59C152.198 24.9633 152.034 25.36 151.848 25.78C151.708 26.2 151.544 26.5967 151.358 26.97C151.171 27.3433 151.031 27.6233 150.938 27.81L150.798 28.16C150.144 29.6067 149.514 31.0067 148.908 32.36C148.301 33.7133 147.624 35.16 146.878 36.7C146.131 38.1933 145.408 39.6633 144.708 41.11C144.054 42.51 143.401 43.8867 142.748 45.24C142.561 45.6133 142.398 45.9867 142.258 46.36C142.118 46.6867 141.931 47.0367 141.698 47.41L138.338 54.62C137.731 55.8333 137.148 57.0233 136.588 58.19C136.074 59.3567 135.491 60.5233 134.838 61.69C134.698 61.9233 134.558 62.1333 134.418 62.32C134.324 62.5533 134.231 62.7867 134.138 63.02C133.811 63.58 133.321 64.1167 132.668 64.63C132.061 65.19 131.408 65.4933 130.708 65.54C129.448 65.6333 128.351 65.26 127.418 64.42C126.858 64.0933 126.414 63.6267 126.088 63.02C125.901 62.6 125.808 62.0633 125.808 61.41C125.854 61.13 125.878 60.85 125.878 60.57C125.924 60.3367 125.971 60.1033 126.018 59.87C126.111 59.6367 126.181 59.4033 126.228 59.17C126.274 58.9367 126.344 58.75 126.438 58.61C126.578 58.2367 126.694 58.05 126.788 58.05L131.898 46.99C131.664 46.4767 131.431 45.9633 131.198 45.45C130.964 44.89 130.754 44.4 130.568 43.98C129.961 42.5333 129.308 41.0167 128.608 39.43C127.954 37.7967 127.278 36.1867 126.578 34.6C125.878 32.9667 125.154 31.38 124.408 29.84C123.661 28.3 122.914 26.83 122.168 25.43C121.888 24.9633 121.631 24.4733 121.398 23.96C121.164 23.4 120.978 22.8633 120.838 22.35C120.698 21.79 120.651 21.23 120.698 20.67C120.744 20.11 120.954 19.55 121.328 18.99C121.701 18.29 122.191 17.8 122.798 17.52C123.404 17.1933 124.034 17.0533 124.688 17.1C125.388 17.1 126.041 17.24 126.648 17.52C127.254 17.8 127.744 18.1733 128.118 18.64C128.911 19.48 129.541 20.4133 130.008 21.44C130.474 22.4667 130.918 23.5167 131.338 24.59C132.224 26.4567 133.134 28.4167 134.068 30.47C135.001 32.5233 135.934 34.53 136.868 36.49L140.508 28.79C140.881 28.0433 141.208 27.32 141.488 26.62C141.814 25.92 142.141 25.2433 142.468 24.59C142.841 23.7967 143.191 22.98 143.518 22.14C143.891 21.3 144.311 20.53 144.778 19.83C144.871 19.6433 144.964 19.48 145.058 19.34C145.151 19.2 145.244 19.0367 145.338 18.85C145.758 18.29 146.131 17.8467 146.458 17.52C146.691 17.3333 146.878 17.1933 147.018 17.1C147.204 16.96 147.414 16.8667 147.648 16.82C147.974 16.7267 148.278 16.68 148.558 16.68C148.884 16.6333 149.188 16.6333 149.468 16.68C149.934 16.82 150.494 17.03 151.148 17.31C151.848 17.59 152.384 18.08 152.758 18.78ZM212.374 18.5C212.794 19.1067 212.934 20.0633 212.794 21.37C212.7 22.63 212.467 24.0067 212.094 25.5C211.72 26.9467 211.277 28.3933 210.764 29.84C210.25 31.24 209.83 32.4067 209.504 33.34C208.71 35.4867 208.01 37.4933 207.404 39.36C206.797 41.2267 206.074 43.28 205.234 45.52C204.954 46.1733 204.674 46.8267 204.394 47.48C204.16 48.1333 203.857 48.7167 203.484 49.23C203.157 49.7433 202.737 50.1633 202.224 50.49C201.757 50.8167 201.174 50.98 200.474 50.98C199.68 50.98 198.98 50.7 198.374 50.14C197.814 49.58 197.324 48.88 196.904 48.04C196.53 47.2 196.204 46.3133 195.924 45.38C195.644 44.4467 195.41 43.63 195.224 42.93C194.617 40.8767 194.08 39.01 193.614 37.33C193.147 35.6033 192.727 34.0633 192.354 32.71C191.934 34.0633 191.514 35.5333 191.094 37.12C190.674 38.7067 190.137 40.5033 189.484 42.51C189.297 43.21 189.064 44.0733 188.784 45.1C188.504 46.08 188.154 47.0133 187.734 47.9C187.36 48.7867 186.87 49.5333 186.264 50.14C185.704 50.7933 185.027 51.0733 184.234 50.98C183.114 50.9333 182.134 50.49 181.294 49.65C180.5 48.7633 179.8 47.7133 179.194 46.5C178.634 45.2867 178.144 44.0267 177.724 42.72C177.304 41.4133 176.954 40.27 176.674 39.29C176.3 38.03 175.857 36.63 175.344 35.09C174.83 33.55 174.317 31.9867 173.804 30.4C173.337 28.7667 172.894 27.1567 172.474 25.57C172.054 23.9367 171.774 22.4433 171.634 21.09C171.54 20.2033 171.704 19.3867 172.124 18.64C172.59 17.8933 173.174 17.38 173.874 17.1C174.62 16.7733 175.414 16.7033 176.254 16.89C177.14 17.0767 177.934 17.6367 178.634 18.57C179.007 19.0367 179.334 19.62 179.614 20.32C179.94 21.02 180.22 21.79 180.454 22.63C180.687 23.4233 180.92 24.24 181.154 25.08C181.387 25.92 181.62 26.7367 181.854 27.53C182.367 29.3033 182.787 30.7033 183.114 31.73C183.487 32.71 183.86 33.7367 184.234 34.81C184.56 33.7367 184.887 32.71 185.214 31.73C185.587 30.7033 186.03 29.3033 186.544 27.53C186.73 26.97 186.94 26.34 187.174 25.64C187.454 24.8933 187.734 24.1933 188.014 23.54C188.34 22.8867 188.69 22.28 189.064 21.72C189.484 21.1133 189.927 20.67 190.394 20.39C191.42 19.69 192.354 19.5267 193.194 19.9C194.034 20.2267 194.757 20.81 195.364 21.65C195.97 22.49 196.484 23.47 196.904 24.59C197.37 25.6633 197.744 26.6433 198.024 27.53C198.304 28.4633 198.56 29.28 198.794 29.98C199.027 30.6333 199.237 31.24 199.424 31.8C199.61 32.36 199.774 32.8967 199.914 33.41C200.1 33.9233 200.287 34.46 200.474 35.02C200.66 34.46 200.824 33.9233 200.964 33.41C201.15 32.8967 201.337 32.36 201.524 31.8C201.71 31.24 201.92 30.6333 202.154 29.98C202.387 29.28 202.644 28.4633 202.924 27.53C203.11 26.9233 203.297 26.2233 203.484 25.43C203.717 24.6367 203.95 23.8433 204.184 23.05C204.417 22.21 204.65 21.4167 204.884 20.67C205.164 19.9233 205.467 19.2933 205.794 18.78C206.12 18.2667 206.564 17.8467 207.124 17.52C207.684 17.1467 208.267 16.9367 208.874 16.89C209.48 16.7967 210.087 16.8667 210.694 17.1C211.347 17.3333 211.907 17.8 212.374 18.5ZM223.357 18.36C224.897 17.6133 226.507 17.0767 228.187 16.75C229.867 16.4233 231.523 16.3533 233.157 16.54C234.837 16.7267 236.447 17.17 237.987 17.87C239.573 18.57 241.02 19.55 242.327 20.81C243.4 21.8833 244.333 23.19 245.127 24.73C245.92 26.2233 246.503 27.6933 246.877 29.14C247.67 31.7067 247.787 34.2967 247.227 36.91C246.667 39.5233 245.71 41.95 244.357 44.19C243.703 45.2167 242.887 46.15 241.907 46.99C240.973 47.7833 239.97 48.4367 238.897 48.95C237.497 49.6033 235.98 50.0467 234.347 50.28C232.713 50.56 231.127 50.63 229.587 50.49C226.787 50.35 224.313 49.65 222.167 48.39C220.067 47.13 218.363 45.52 217.057 43.56C215.797 41.6 214.957 39.3833 214.537 36.91C214.163 34.39 214.327 31.8233 215.027 29.21C215.773 26.41 216.847 24.1467 218.247 22.42C219.693 20.6467 221.397 19.2933 223.357 18.36ZM225.457 27.74C224.757 28.3933 224.22 29.21 223.847 30.19C223.473 31.17 223.24 32.1967 223.147 33.27C223.053 34.2967 223.123 35.3467 223.357 36.42C223.637 37.4467 224.057 38.38 224.617 39.22C225.083 39.92 225.923 40.5033 227.137 40.97C228.35 41.4367 229.61 41.7167 230.917 41.81C232.41 41.9033 233.717 41.5067 234.837 40.62C235.957 39.6867 236.797 38.5433 237.357 37.19C237.963 35.8367 238.243 34.3667 238.197 32.78C238.15 31.1933 237.73 29.7467 236.937 28.44C236.377 27.5067 235.583 26.83 234.557 26.41C233.577 25.9433 232.527 25.71 231.407 25.71C230.333 25.6633 229.26 25.8267 228.187 26.2C227.113 26.5267 226.203 27.04 225.457 27.74ZM249.025 25.22C249.025 24.66 249.025 24.03 249.025 23.33C249.025 22.5833 249.048 21.8367 249.095 21.09C249.141 20.2967 249.211 19.55 249.305 18.85C249.445 18.1033 249.631 17.45 249.865 16.89C250.238 16.05 250.821 15.49 251.615 15.21C252.408 14.8833 253.271 14.7433 254.205 14.79C255.185 14.79 255.955 14.9533 256.515 15.28C257.075 15.6067 257.495 16.05 257.775 16.61C258.055 17.1233 258.218 17.73 258.265 18.43C258.358 19.0833 258.405 19.7833 258.405 20.53C258.825 19.7833 259.385 19.1767 260.085 18.71C260.831 18.2433 261.578 17.87 262.325 17.59C263.071 17.31 263.748 17.1233 264.355 17.03C264.961 16.89 265.311 16.82 265.405 16.82C266.571 16.7267 267.621 16.7033 268.555 16.75C269.535 16.7967 270.608 17.0067 271.775 17.38C272.521 17.66 273.291 18.0567 274.085 18.57C274.878 19.0367 275.578 19.5967 276.185 20.25C276.791 20.9033 277.188 21.6267 277.375 22.42C277.608 23.1667 277.515 23.96 277.095 24.8C276.441 25.9667 275.718 26.55 274.925 26.55C274.131 26.5033 273.268 26.3633 272.335 26.13C271.821 26.0367 271.215 25.8267 270.515 25.5C269.815 25.1733 269.208 24.9633 268.695 24.87C267.108 24.6367 265.708 24.7533 264.495 25.22C263.281 25.6867 262.231 26.2467 261.345 26.9C260.318 27.6933 259.431 28.6033 258.685 29.63V39.71C258.685 40.97 258.661 42.2767 258.615 43.63C258.615 44.9833 258.428 46.22 258.055 47.34C257.728 48.4133 257.145 49.3 256.305 50C255.511 50.6533 254.345 50.9333 252.805 50.84C251.965 50.7933 251.218 50.3967 250.565 49.65C249.911 48.8567 249.515 48.0867 249.375 47.34C249.281 46.64 249.211 45.8 249.165 44.82C249.118 43.84 249.071 42.8133 249.025 41.74C249.025 40.6667 249.025 39.5933 249.025 38.52C249.025 37.4 249.025 36.3733 249.025 35.44V25.22ZM295.852 1.07C296.739 0.836663 297.509 0.81333 298.162 0.999997C298.862 1.14 299.446 1.44333 299.912 1.91C300.426 2.37666 300.799 2.96 301.032 3.66C301.312 4.36 301.452 5.13 301.452 5.97C301.499 8.30333 301.499 10.1233 301.452 11.43C301.452 12.7367 301.452 13.88 301.452 14.86V36.35C301.452 38.87 301.452 40.97 301.452 42.65C301.452 44.33 301.359 45.7067 301.172 46.78C301.032 47.8067 300.752 48.5767 300.332 49.09C299.959 49.6033 299.376 49.9533 298.582 50.14C297.789 50.3733 296.739 50.49 295.432 50.49C294.172 50.49 292.586 50.49 290.672 50.49C285.632 50.49 281.642 49.3 278.702 46.92C275.809 44.54 274.269 40.76 274.082 35.58C273.989 33.34 274.269 31.2867 274.922 29.42C275.576 27.5533 276.532 25.9667 277.792 24.66C279.099 23.3067 280.686 22.28 282.552 21.58C284.466 20.8333 286.636 20.4833 289.062 20.53H292.912V8C292.912 7.25333 292.912 6.53 292.912 5.83C292.912 5.08333 292.982 4.40667 293.122 3.8C293.262 3.14666 293.542 2.58667 293.962 2.12C294.382 1.65333 295.012 1.30333 295.852 1.07ZM283.672 39.92C284.652 41.2733 286.426 42.02 288.992 42.16C289.506 42.2067 289.996 42.23 290.462 42.23C290.929 42.1833 291.349 42.1133 291.722 42.02C292.142 41.9733 292.539 41.9033 292.912 41.81V28.86C291.279 28.58 289.786 28.4167 288.432 28.37C287.126 28.2767 285.819 28.7433 284.512 29.77C283.812 30.33 283.276 31.0533 282.902 31.94C282.529 32.78 282.319 33.69 282.272 34.67C282.226 35.6033 282.319 36.5367 282.552 37.47C282.786 38.4033 283.159 39.22 283.672 39.92Z" fill="white"/>
<path d="M20.89 20.39C21.6833 20.6233 22.1967 21.0667 22.43 21.72C22.6633 22.3267 22.7333 22.98 22.64 23.68C22.36 25.1267 21.5667 26.0133 20.26 26.34C19.5133 26.5267 18.7433 26.62 17.95 26.62C17.2033 26.62 16.4333 26.6433 15.64 26.69V42.86C15.64 43.98 15.57 45.1233 15.43 46.29C15.43 46.71 15.3133 47.1533 15.08 47.62C14.9867 47.8533 14.9167 47.9933 14.87 48.04C14.87 48.1333 14.8233 48.2733 14.73 48.46C14.45 48.9733 14.0767 49.3933 13.61 49.72C12.5833 50.28 11.4867 50.42 10.32 50.14C9.62 50 9.08333 49.7667 8.71 49.44C8.29 49.1133 7.98667 48.7167 7.8 48.25C7.70667 48.0167 7.63667 47.7833 7.59 47.55C7.54333 47.3167 7.47333 47.0833 7.38 46.85C7.33333 46.6167 7.28667 46.4067 7.24 46.22C7.24 45.9867 7.24 45.8 7.24 45.66V41.6C7.24 39.1733 7.24 36.6533 7.24 34.04C7.28667 31.4267 7.31 28.9067 7.31 26.48C6.23667 26.4333 5.11667 26.41 3.95 26.41C2.83 26.3633 2.01333 26.0833 1.5 25.57C1.22 25.29 1.03333 24.94 0.94 24.52C0.846667 24.0533 0.8 23.5867 0.8 23.12C0.846667 22.6533 0.94 22.2333 1.08 21.86C1.22 21.44 1.40667 21.1367 1.64 20.95C2.24667 20.39 2.78333 20.0867 3.25 20.04C3.76333 19.9467 4.39333 19.8767 5.14 19.83C5.23333 19.83 5.53667 19.83 6.05 19.83C6.61 19.7833 6.96 19.76 7.1 19.76C7.14667 18.1733 7.19333 16.5867 7.24 15C7.28667 13.4133 7.42667 11.9667 7.66 10.66C7.94 9.30666 8.33667 8.14 8.85 7.16C9.41 6.13333 10.25 5.36333 11.37 4.85C12.7233 4.24333 14.2633 3.87 15.99 3.73C17.7167 3.59 19.28 3.8 20.68 4.36C21.3333 4.59333 21.9633 5.06 22.57 5.76C23.2233 6.46 23.5267 7.23 23.48 8.07C23.4333 8.91 23.27 9.68 22.99 10.38C22.71 11.08 22.1033 11.5467 21.17 11.78C20.75 11.8733 20.3067 11.92 19.84 11.92C19.42 11.8733 18.9767 11.85 18.51 11.85C18.0433 11.85 17.6 11.92 17.18 12.06C16.8067 12.1533 16.48 12.3633 16.2 12.69C15.9667 12.97 15.8033 13.3433 15.71 13.81C15.6633 14.2767 15.6167 14.7667 15.57 15.28C15.5233 15.7933 15.5 16.3067 15.5 16.82C15.5467 17.2867 15.57 17.6833 15.57 18.01V19.76C16.6433 19.8533 17.6233 19.9233 18.51 19.97C19.4433 20.0167 20.2367 20.1567 20.89 20.39Z" fill="#6900FF"/>
</svg>
